<?xml version="1.0" encoding="UTF-8" standalone="no"?>
<!-- Created with Inkscape (http://www.inkscape.org/) -->

<svg
   width="15.397202mm"
   height="20.372917mm"
   viewBox="0 0 15.397202 20.372917"
   version="1.1"
   id="svg5"
   xml:space="preserve"
   xmlns="http://www.w3.org/2000/svg"
   xmlns:svg="http://www.w3.org/2000/svg">
  
  <defs
   id="defs2" />
  
  <g
   id="layer4-0"
   transform="translate(-57.916671,-50.270833)">
    <g
   id="layer3-9"
   style="font-weight:bold;font-size:8.46667px;font-family:Sixtyfour;-inkscape-font-specification:'Sixtyfour Bold';letter-spacing:0.661458px;fill:#c30101;stroke-width:2;stroke-linejoin:round">
      <rect
   style="display:none;opacity:1;fill:#2b2d42;fill-opacity:1;stroke:none;stroke-width:0.1;stroke-linejoin:round;stroke-dasharray:none;stroke-opacity:1"
   id="rect5351-1"
   width="56.885414"
   height="26.458332"
   x="21.874901"
   y="47.671768" />
    </g>
    
    <g
   id="layer1-6"
   style="font-weight:bold;font-size:8.46667px;font-family:Sixtyfour;-inkscape-font-specification:'Sixtyfour Bold';letter-spacing:0.661458px;fill:#c30101;stroke-width:2;stroke-linejoin:round">
      <g
   id="g5171-6-6"
   transform="matrix(-1,0,0,1,142.34583,-2.116666)"
   style="display:inline">
        <path
   id="path1960-5-08"
   style="font-weight:bold;font-size:8.46667px;font-family:Sixtyfour;-inkscape-font-specification:'Sixtyfour Bold';letter-spacing:0.661458px;display:inline;fill:#ef233c;fill-opacity:1;stroke-width:0.1;stroke-linejoin:round"
   d="m 76.729163,52.387499 c 1.85207,0 3.158422,0.55749 4.497917,1.322917 1.852069,1.058326 3.175,4.760364 3.175,6.879167 0,1.382062 0.365295,3.589786 -1.5875,4.980574 v 0.707967 c 8.1e-5,0.08698 -0.02009,0.172791 -0.05891,0.250631 l -0.411345,0.821655 c -0.03621,0.07244 -0.110213,0.118241 -0.191202,0.118339 -0.07506,1.32e-4 -0.137815,0.05709 -0.145211,0.131775 l -0.238745,2.382284 c -0.0084,0.0847 -0.04863,0.163036 -0.112655,0.219108 l -1.917195,1.677417 c -0.06616,0.05784 -0.139449,0.106987 -0.218075,0.146244 l -1.350822,0.675928 c -0.07784,0.03882 -0.163648,0.05899 -0.250631,0.05891 h -1.190625 v -2.670638 c 0.396714,-0.01361 1.223814,-0.0481 1.790589,-0.208256 0.06984,-0.01974 0.334185,-0.104485 0.402559,-0.130225 1.060476,-0.5436 1.634645,-1.302612 1.79834,-1.602486 0.0248,-0.196408 0.300667,-1.314581 0.269234,-1.478463 -0.05986,-0.118104 -0.240054,-0.216119 -0.415478,-0.228409 -0.02506,-0.0018 -0.04992,-0.0019 -0.07441,0 -0.176751,0.0139 -0.618578,0.223059 -0.753443,0.313676 -0.191893,0.169244 -0.284441,0.39012 -0.313159,0.638204 -0.02802,0.24204 0.3145,0.418458 0.247013,0.524515 -0.10031,0.157639 -1.052769,0.401104 -1.469677,0.443384 -0.438267,0.04444 -0.938904,0.104495 -1.465027,0.10697 v 5.17e-4 c -0.0055,0 -0.01099,1.3e-5 -0.01654,0 v -1.794206 c 0.584501,0 0.871245,-0.07749 1.058334,-0.264583 0.264577,-0.264584 -0.473833,-2.513542 -1.058334,-2.513542 z m 2.248959,8.593274 c -0.553927,-0.01 -0.740007,0.266141 -0.926042,1.19631 -0.259445,1.297218 6e-6,1.587505 1.058333,2.116666 1.110932,0.555466 1.704628,0.598542 2.38125,-0.529166 0.79375,-1.322907 -0.36956,-2.402245 -1.5875,-2.645834 -0.392735,-0.07855 -0.692166,-0.133757 -0.926041,-0.137976 z" />
        <path
   id="path11948-5-1"
   style="display:inline;opacity:1;fill:none;fill-opacity:1;stroke:#ef233c;stroke-width:0.15;stroke-linecap:round;stroke-linejoin:round;stroke-dasharray:none;stroke-opacity:1"
   d="m 68.146225,65.844042 c 0.03048,1.68e-4 0.06133,0.0125 0.08527,0.04754 0.04903,0.196854 0.103647,0.34162 0.104386,0.563273 -0.0089,0.04458 -0.0506,0.123817 -0.09198,0.142627 -0.0605,0.0148 -0.11198,0.01327 -0.14366,-0.02739 -0.01544,-0.05353 -0.07168,-0.354738 -0.07235,-0.391708 -7e-4,-0.03921 -0.02126,-0.264248 0.0078,-0.289388 0.02207,-0.01912 0.06603,-0.0452 0.110588,-0.04496 z m -0.285254,0.160197 c 0.03048,1.68e-4 0.06133,0.0125 0.08527,0.04754 0.04903,0.196854 0.116566,0.37676 0.117305,0.598413 -0.0089,0.04458 -0.05629,0.09436 -0.09767,0.113172 -0.0605,0.0148 -0.08695,0.0105 -0.14056,0.0093 -0.01166,-0.02381 -0.0471,-0.203551 -0.0677,-0.325044 0.0085,0.133271 0.01064,0.264611 0.0078,0.334863 -0.0043,0.02159 -0.02173,0.03996 -0.04289,0.05529 0.04302,0.0017 0.08024,0.01167 0.09922,0.03669 v 5.17e-4 c 0.02135,0.02817 0.03744,0.09139 0.04961,0.169498 -0.0035,-0.06987 -0.0046,-0.153346 0.01344,-0.167431 0.03727,-0.02907 0.137301,-0.07531 0.19637,0.0026 0.04916,0.177735 0.116565,0.339891 0.117306,0.540018 -0.0089,0.04025 -0.05618,0.08534 -0.09767,0.10232 -0.06066,0.01336 -0.08732,0.0094 -0.141076,0.0083 -0.01169,-0.02151 -0.04705,-0.183826 -0.0677,-0.293522 0.0086,0.120328 0.01065,0.238878 0.0078,0.302307 -0.0089,0.04025 -0.07271,0.06777 -0.114205,0.08475 -0.0656,0.02685 -0.136311,0.03066 -0.178283,0.02687 -0.05222,-0.0047 -0.07844,-0.01074 -0.09199,-0.03566 -0.01694,-0.03117 -0.05153,-0.336107 -0.05219,-0.369486 -6.27e-4,-0.03117 -0.0384,-0.262871 5.17e-4,-0.340548 -0.04527,-0.0052 -0.06906,-0.01252 -0.08165,-0.03824 -0.0169,-0.03453 -0.05153,-0.372308 -0.05219,-0.409278 -7.1e-4,-0.03921 -0.04875,-0.365212 0.02119,-0.402042 0.0435,-0.02294 0.277504,-0.09505 0.336414,-0.0088 0.0213,0.0312 0.03748,0.101603 0.04961,0.188102 -0.0035,-0.07742 -0.0046,-0.169908 0.01344,-0.185519 0.02207,-0.01912 0.06603,-0.0452 0.110588,-0.04496 z m -0.706417,0.177767 c 0.04674,6.53e-4 0.08775,0.01169 0.108004,0.04134 0.06638,0.09726 0.08256,0.554627 0.07596,0.715202 -0.004,0.02024 -0.01128,0.04129 -0.02119,0.06046 0.034,0.0039 0.06219,0.01425 0.07803,0.03514 v 5.17e-4 c 0.06656,0.08781 0.08258,0.500458 0.07596,0.645439 -0.0089,0.04025 -0.03153,0.0838 -0.07028,0.10542 -0.104977,0.05858 -0.156981,0.0379 -0.198955,0.03411 -0.05222,-0.0047 -0.09911,-0.02004 -0.112654,-0.04496 -0.0049,-0.0089 -0.0105,-0.04022 -0.01602,-0.08062 -6.79e-4,0.01431 -0.0015,0.02764 -0.0021,0.03927 -0.0089,0.04025 -0.03153,0.08432 -0.07028,0.105937 -0.104974,0.05858 -0.213859,0.07742 -0.33693,0.06821 -0.09635,-0.0072 -0.120788,-0.01857 -0.142627,-0.04909 -0.0055,-0.0077 -0.0096,-0.04058 -0.0124,-0.08475 -0.0017,0.01677 -0.0039,0.03434 -0.0067,0.05271 -0.0089,0.04025 -0.03154,0.0838 -0.07028,0.10542 -0.104973,0.05858 -0.246414,0.111012 -0.369486,0.101802 -0.09635,-0.0072 -0.280014,0.0076 -0.339514,-0.06098 -0.08654,-0.09986 -0.03974,-0.449795 -0.03462,-0.483174 0.0055,-0.03581 0.06905,-0.131053 0.232544,-0.173633 0.02286,-0.006 0.05869,-0.01336 0.100252,-0.02015 -0.02758,9.11e-4 -0.0548,1.64e-4 -0.08165,-0.0021 -0.09609,-0.008 -0.180439,0.0088 -0.239779,-0.06718 -0.0256,-0.257233 -0.121911,-0.663887 0.0155,-0.947746 0.07934,-0.06795 0.313995,-0.06373 0.411345,-0.02584 0.07232,0.02815 0.114607,0.110284 0.145727,0.181384 0.04691,0.10727 0.08322,0.212096 0.10232,0.318843 0.0012,-0.05648 0.0033,-0.09941 0.0067,-0.109554 0.0117,-0.03508 -0.04669,-0.320771 0.02325,-0.357601 0.0435,-0.02291 0.297197,-0.1089 0.374137,-0.03824 0.06509,0.05977 0.105198,0.145332 0.129708,0.238745 -0.01316,-0.107084 -0.02349,-0.232625 0.01757,-0.254248 0.02855,-0.01505 0.139174,-0.05137 0.22841,-0.05013 z m 1.134298,0.510046 c 0.0282,0.0018 0.05588,0.01368 0.07803,0.04289 h 5.17e-4 c 0.04917,0.177735 0.103645,0.308367 0.104386,0.508496 -0.0089,0.04025 -0.05049,0.111691 -0.09198,0.128674 -0.06067,0.01336 -0.112411,0.01191 -0.144177,-0.02481 -0.01548,-0.04833 -0.0722,-0.320087 -0.07286,-0.353466 -7.02e-4,-0.0354 -0.02134,-0.238785 0.0078,-0.261483 0.02329,-0.01817 0.07133,-0.04323 0.118339,-0.04031 z m -1.347722,0.262 c -6.77e-4,0.01585 -0.0015,0.03104 -0.0021,0.04393 -0.0043,0.02145 -0.01184,0.04349 -0.02274,0.06356 0.06229,0.05412 0.101283,0.129869 0.125057,0.21239 -0.009,-0.06589 -0.01706,-0.139551 -0.0083,-0.186552 -0.03613,-0.0083 -0.06574,-0.02303 -0.07596,-0.04393 -0.0048,-0.0099 -0.01051,-0.04464 -0.01602,-0.0894 z m -0.561723,0.104903 c -0.0021,0.0137 -0.0045,0.02747 -0.0072,0.04134 -0.0089,0.04458 -0.03164,0.09337 -0.07028,0.117306 -0.04774,0.02958 -0.101813,0.04992 -0.15813,0.06253 0.03396,-0.0031 0.06703,-0.0046 0.09612,-0.0041 0.03945,6.14e-4 0.114286,0.0059 0.177767,0.04961 0.03602,0.100259 0.07081,0.175219 0.08682,0.265617 -3.1e-5,-0.08677 0.0028,-0.164262 0.0078,-0.177767 0.0077,-0.02067 -0.01489,-0.137765 -0.01189,-0.225826 -0.06929,-0.0083 -0.0905,-0.0221 -0.109554,-0.05168 -0.0048,-0.0075 -0.0086,-0.03675 -0.01137,-0.077 z"
   transform="translate(11.112499,2.116667)" />
      </g>
      <g
   id="g5171-6-2-9"
   transform="translate(-11.112497,-2.116665)"
   style="display:inline">
        <path
   id="path1960-5-0-3"
   style="font-weight:bold;font-size:8.46667px;font-family:Sixtyfour;-inkscape-font-specification:'Sixtyfour Bold';letter-spacing:0.661458px;display:inline;fill:#ef233c;fill-opacity:1;stroke-width:0.1;stroke-linejoin:round"
   d="m 77.122938,52.396283 v 0.232028 h -0.393774 v 0.220658 h 1.275891 v -0.220658 h -0.441317 v -0.201022 c -0.14346,-0.01409 -0.290472,-0.02433 -0.4408,-0.03101 z m 1.195793,0.142627 v 0.0894 h 0.220658 v 0.220658 h 0.882117 v -5.17e-4 C 79.070289,52.721717 78.705755,52.616256 78.318731,52.53891 Z m -1.416451,0.569475 v 0.220658 h -0.173116 v 1.102258 h 0.173116 v 0.220659 h 0.882116 v -0.220659 h 0.220659 v -1.102258 h -0.220659 v -0.220658 z m 1.857767,0 v 0.220658 h -0.220658 v 0.220142 h -0.220658 v 0.441316 h 0.220658 v -0.220658 h 0.220658 v 0.661458 h -0.441316 v 0.220659 h 1.322916 v -0.220659 h -0.4408 v -1.322916 z m 1.415935,0.05271 v 0.167948 H 79.95584 v 1.102258 h 0.220142 v 0.220659 h 0.882116 v -0.220659 h 0.220659 v -0.68988 c -0.01724,-0.01037 -0.03434,-0.0211 -0.05168,-0.03101 -0.129995,-0.07428 -0.25974,-0.145961 -0.38964,-0.216007 v 0.05478 h -0.220142 v 0.220658 H 80.39664 v -0.4408 h 0.12454 c -0.114407,-0.05795 -0.229445,-0.114106 -0.345198,-0.167948 z m -3.053044,0.167948 h 0.4408 v 0.220142 h -0.220142 v 0.220658 h -0.220658 z m 4.469495,0.628902 v 0.473356 h 0.220658 v 0.220659 h 0.472839 c -0.06234,-0.0762 -0.125785,-0.150096 -0.190169,-0.220659 h -0.06201 v -0.0677 c -0.142666,-0.150629 -0.289681,-0.286759 -0.441316,-0.40566 z m -4.248837,0.03256 h 0.220142 v 0.4408 h -0.4408 v -0.220658 h 0.220658 z m 3.273702,0 h 0.220142 v 0.4408 h -0.4408 v -0.220658 h 0.220658 z m -3.49436,0.920874 v 0.220659 H 76.90228 v 0.220141 h -0.173116 v 0.441317 h 0.173116 v -0.220658 h 0.220658 v 0.661458 h -0.393774 v 0.220658 h 1.275891 v -0.220658 h -0.441317 v -1.322917 z m 1.637109,0 v 0.220659 h -0.220658 v 0.220141 h -0.220658 v 0.441317 h 0.220658 v -0.220658 h 0.220658 v 0.661458 h -0.441316 v 0.220658 h 1.322916 v -0.220658 h -0.4408 v -1.322917 z m 1.415935,0 v 0.220659 H 79.95584 v 1.102258 h 0.220142 v 0.220658 h 0.882116 v -0.220658 h 0.220659 v -1.102258 h -0.220659 v -0.220659 z m 1.857767,0 v 0.220659 h -0.220658 v 0.220141 h -0.220658 v 0.441317 h 0.220658 v -0.220658 h 0.220658 v 0.661458 h -0.441316 v 0.220658 h 1.322916 v -0.220658 h -0.4408 v -1.322917 z m -1.637109,0.220659 h 0.4408 v 0.220141 h -0.220142 v 0.220659 H 80.39664 Z m 0.220658,0.661458 h 0.220142 v 0.4408 h -0.4408 v -0.220658 h 0.220658 z m 2.612244,0.353984 v 0.08682 h 0.04341 c -0.01421,-0.0292 -0.02897,-0.05783 -0.04341,-0.08682 z m -6.327262,0.56689 v 0.220658 h -0.173116 v 1.102259 h 0.173116 v 0.220658 h 0.882116 v -0.220658 h 0.220659 V 56.935028 H 77.784396 V 56.71437 Z m 1.857767,0 v 0.220658 h -0.220658 v 0.220142 h -0.220658 v 0.441317 h 0.220658 v -0.220659 h 0.220658 v 0.661459 h -0.441316 v 0.220658 h 1.322916 v -0.220658 h -0.4408 V 56.71437 Z m 1.636593,0 v 0.220658 H 80.175982 V 57.15517 H 79.95584 v 0.441317 h 0.220142 v -0.220659 h 0.220658 v 0.661459 h -0.4408 v 0.220658 h 1.322917 V 58.037283 H 80.83744 v -1.322917 z m 1.637109,0 v 0.220658 h -0.220658 v 0.220142 h -0.220658 v 0.441317 h 0.220658 v -0.220659 h 0.220658 v 0.661459 h -0.441316 v 0.220658 h 1.322916 v -0.220658 h -0.4408 V 56.71437 Z m -4.910811,0.220658 h 0.4408 v 0.220142 h -0.220142 v 0.220658 h -0.220658 z m 6.327262,0 v 0.220142 h -0.220658 v 0.441317 H 83.4502 v -0.220659 h 0.220142 v 0.661459 h -0.4408 v 0.220658 h 0.806152 c -0.122822,-0.440327 -0.274488,-0.887297 -0.451135,-1.322917 z m -6.106604,0.661459 h 0.220142 v 0.4408 h -0.4408 v -0.220659 h 0.220658 z m -0.220658,0.920874 v 0.220658 H 76.90228 v 0.220142 h -0.173116 v 0.441316 h 0.173116 v -0.220658 h 0.220658 v 0.661458 h -0.393774 v 0.220659 h 1.275891 v -0.220659 h -0.441317 v -1.322916 z m 1.416451,0 v 0.220658 h -0.220658 v 1.102258 h 0.220658 v 0.220659 h 0.882117 v -0.220659 h 0.220141 v -1.102258 h -0.220141 v -0.220658 z m 1.857251,0 v 0.220658 h -0.220658 v 0.220142 H 79.95584 v 0.441316 h 0.220142 v -0.220658 h 0.220658 v 0.661458 h -0.4408 v 0.220659 h 1.322917 V 59.840273 H 80.83744 v -1.322916 z m 1.416451,0 v 0.220658 h -0.220658 v 1.102258 h 0.220658 v 0.220659 h 0.882117 v -0.220659 h 0.220141 v -1.102258 h -0.220141 v -0.220658 z m 1.857251,0 v 0.220658 H 83.4502 v 0.220142 h -0.220658 v 0.441316 H 83.4502 v -0.220658 h 0.220142 v 0.661458 h -0.4408 v 0.220659 h 1.147217 c -0.0063,-0.07247 -0.01354,-0.145922 -0.02222,-0.220659 H 84.11166 v -1.297078 c -0.0022,-0.0086 -0.004,-0.0172 -0.0062,-0.02584 z m -4.910295,0.220658 h 0.4408 v 0.220142 h -0.220658 v 0.220658 h -0.220142 z m 3.273702,0 h 0.4408 v 0.220142 h -0.220658 v 0.220658 h -0.220142 z m -3.05356,0.661458 h 0.220658 v 0.4408 h -0.4408 v -0.220658 h 0.220142 z m 3.273702,0 h 0.220658 v 0.4408 h -0.4408 v -0.220658 h 0.220142 z m -5.351611,0.920874 v 0.220659 h -0.173116 v 1.102258 h 0.173116 v 0.220658 h 0.882116 v -0.220658 h 0.220659 V 60.54101 h -0.220659 v -0.220659 z m 1.637109,0 v 0.220659 h -0.220658 v 0.775663 c 0.134539,-0.233808 0.314045,-0.327123 0.592728,-0.334863 h -0.151412 v -0.4408 h 0.4408 v 0.220141 h -0.220658 v 0.219625 c 0.17819,0.0034 0.395094,0.03663 0.661458,0.08682 v -0.526583 h -0.220141 v -0.220659 z m 1.636593,0 V 60.54101 H 79.95584 v 0.589111 c 0.227645,0.05 0.452009,0.128951 0.661458,0.233061 v -0.160714 h 0.220142 v 0.283187 c 0.07908,0.04893 0.154997,0.101275 0.22686,0.157613 h 0.214457 V 60.54101 h -0.220659 v -0.220659 z m 1.857767,0 v 0.220659 h -0.220658 v 0.220141 h -0.220658 v 0.441317 h 0.220658 V 60.98181 h 0.220658 v 0.661458 h -0.441316 v 0.220658 h 1.322916 v -0.220658 h -0.4408 v -1.322917 z m 1.416451,0 v 0.220659 h -0.220658 v 1.102258 H 83.4502 v 0.220658 h 0.8816 v -0.220658 h 0.09457 c -0.0062,-0.380629 -0.02429,-0.739201 -0.02429,-1.053682 0,-0.01584 -8.86e-4,-0.03256 -0.001,-0.04858 H 84.3318 v -0.220659 z m -6.327262,0.220659 h 0.4408 v 0.220141 h -0.220142 v 0.220659 h -0.220658 z m 3.273702,0 h 0.4408 v 0.220141 H 80.617298 V 60.98181 H 80.39664 Z m 3.273702,0 h 0.441317 v 0.220141 H 83.891 v 0.220659 h -0.220658 z m -6.326746,0.661458 h 0.220142 v 0.4408 h -0.4408 V 61.42261 h 0.220658 z m 6.547404,0 h 0.220659 v 0.4408 H 83.670342 V 61.422606 H 83.891 Z m -6.98872,0.920874 v 0.220659 h -0.173116 v 1.102258 h 0.173116 v 0.220658 h 0.882116 v -0.220658 h 0.220659 v -0.127641 c -0.06249,-0.224609 -0.05905,-0.503888 0,-0.877466 v -0.09715 h -0.220659 v -0.220659 z m 4.910811,0 v 0.220659 H 81.63119 c 0.144175,0.326238 0.168776,0.699807 0.0155,1.102258 h 0.166398 v 0.220658 h 0.882117 v -0.220658 h 0.220141 v -1.102258 h -0.220141 v -0.220659 z m 1.857251,0 v 0.220659 H 83.4502 v 0.220141 h -0.220658 v 0.441317 H 83.4502 v -0.220658 h 0.220142 v 0.661458 h -0.4408 v 0.220658 h 0.970483 c 0.02279,-0.07334 0.04387,-0.146838 0.06253,-0.220658 H 84.11166 v -1.322917 z m -6.547404,0.220659 h 0.4408 v 0.220141 h -0.220142 v 0.220659 h -0.220658 z m 4.910811,0 h 0.4408 v 0.220141 h -0.220658 v 0.220659 h -0.220142 z m -4.690153,0.661458 h 0.220142 v 0.4408 h -0.4408 V 63.2256 h 0.220658 z m 4.910295,0 h 0.220658 v 0.4408 h -0.4408 V 63.2256 h 0.220142 z m -5.351611,0.920874 v 0.03049 c 0.07355,0.04826 0.147963,0.123365 0.220658,0.218591 v -0.02842 h 0.4408 v 0.220142 h -0.220142 v 0.163297 c 0.04629,0.08799 0.09067,0.181523 0.132809,0.27802 h 0.08733 v 0.21394 c 0.0575,0.149531 0.108306,0.301021 0.150378,0.447518 h 0.07028 v -0.220658 h 0.220659 v -1.102259 h -0.220659 v -0.220658 z m 5.131469,0 v 0.220658 h -0.220658 v 0.220142 h -0.220658 v 0.441317 h 0.220658 v -0.220659 h 0.220658 v 0.661459 h -0.441316 v 0.220658 h 1.322916 V 65.24925 h -0.4408 v -1.322917 z m 1.416451,0 v 0.220658 h -0.220658 v 1.082622 c 0.216098,-0.202844 0.394686,-0.418067 0.541052,-0.641822 h -0.100252 v -0.4408 h 0.344682 c 0.03397,-0.073 0.06629,-0.146626 0.09508,-0.220658 z m -4.690153,0.182934 v 0.03772 h -0.220658 v 0.220142 h -0.220658 v 0.441317 h 0.220658 v -0.220659 h 0.220658 v 0.661459 h -0.441316 v 0.220658 h 1.322916 v -0.220658 h -0.4408 v -0.911573 c -0.03022,-0.01469 -0.05942,-0.02842 -0.09043,-0.04393 -0.128522,-0.06426 -0.244906,-0.125038 -0.350367,-0.184485 z m 2.470134,0.03772 c -0.386915,0.485004 -0.772533,0.602769 -1.274341,0.483175 v 0.619084 h 0.220142 v 0.220658 h 0.882116 v -0.220658 h 0.220659 V 64.146987 Z M 83.891,64.367129 v 0.02377 c 0.0045,-0.0079 0.0085,-0.01584 0.01292,-0.02377 z m -3.273702,0.441317 h 0.220142 v 0.4408 h -0.4408 v -0.220659 h 0.220658 z m -2.836002,0.920874 c 0.0011,0.0051 0.002,0.01 0.0031,0.01499 v -0.01499 z m 0.978751,0 v 0.220658 h -0.220658 v 0.220142 h -0.220658 v 0.441316 h 0.220658 v -0.220658 h 0.220658 v 0.661458 h -0.441316 v 0.220659 h 1.135331 c 0.01644,-0.07689 0.03969,-0.151098 0.07183,-0.220659 H 79.200847 V 65.72932 Z m 1.415935,0 v 0.220658 H 79.95584 v 0.690914 c 0.185108,-0.09099 0.424557,-0.189549 0.544153,-0.198954 0.02449,-0.0019 0.04935,-0.0018 0.07441,0 0.175424,0.01229 0.355619,0.110307 0.415479,0.228409 0.01367,0.07128 -0.03171,0.324562 -0.08837,0.602548 h 0.156579 V 67.052236 H 81.27875 V 65.949978 H 81.058098 V 65.72932 Z m 1.857767,0 v 0.220658 h -0.220658 v 0.220142 h -0.220658 v 0.441316 h 0.220658 v -0.220658 h 0.220658 v 0.661458 h -0.441316 v 0.220659 h 0.790649 L 82.49367,67.052236 H 82.47455 V 65.72932 Z m -4.211112,0.220658 c 0.03346,0.226021 0.02696,0.398332 -0.03514,0.460437 -0.09246,0.09246 -0.209614,0.158221 -0.374654,0.201021 h 0.150895 v 0.4408 h -0.4408 v -0.220658 h 0.220658 v -0.204122 c -0.158591,0.03259 -0.357824,0.04754 -0.614432,0.04754 v 0.377238 h 0.173116 v 0.220659 h 0.882116 v -0.220659 h 0.220659 v -1.102258 z m 2.574003,0 h 0.4408 v 0.220142 h -0.220142 v 0.220658 H 80.39664 Z m -3.49436,1.582332 v 0.220659 h -0.173116 v 0.244946 0.471289 0.386023 h 0.173116 v 0.220658 h 0.882116 v -0.220658 h 0.220659 V 67.752969 H 77.784396 V 67.53231 Z m 1.857767,0 v 0.220659 h -0.220658 v 0.220658 h -0.220658 v 0.4408 h 0.220658 v -0.220658 h 0.220658 v 0.661458 h -0.441316 v 0.220658 h 1.247986 l -0.03152,-0.220658 h -0.33435 V 67.53231 Z m 2.087212,0 c -0.01646,0.07684 -0.03189,0.150523 -0.04703,0.220659 h 0.03721 v 0.220658 h -0.08372 c -0.01578,0.07654 -0.02889,0.142065 -0.03307,0.175183 -0.08152,0.149344 -0.266014,0.412648 -0.560689,0.706417 h 0.01602 v 0.220658 h 0.882116 v -0.220658 h 0.220659 V 67.752969 H 81.058098 V 67.53231 Z m -3.724321,0.220659 h 0.4408 v 0.220658 h -0.220142 v 0.220142 h -0.220658 z m 4.690153,0 v 0.220658 h -0.220658 v 0.4408 h 0.220658 v -0.220658 h 0.135392 l 0.04393,-0.4408 z m -4.469495,0.661458 h 0.220142 v 0.4408 h -0.4408 v -0.220142 h 0.220658 z m 3.273702,0 h 0.220142 v 0.4408 h -0.4408 v -0.220142 h 0.220658 z m 0.975135,0.4408 v 0.220658 h 0.267684 l 0.02222,-0.220658 z m -4.690153,0.480074 v 0.220658 h -0.173116 v 0.533818 0.553971 0.01447 h 0.173116 v 0.220658 h 0.882116 v -0.220658 h 0.220659 v -1.102259 h -0.220659 v -0.220658 z m 1.857767,0 v 0.220658 h -0.220658 v 0.220659 h -0.220658 v 0.4408 h 0.220658 v -0.220659 h 0.220658 v 0.661459 h -0.441316 v 0.220658 h 1.322916 v -0.220658 h -0.4408 v -1.322917 z m 1.415935,0 v 0.220658 H 79.95584 v 1.102259 h 0.220142 v 0.220658 h 0.706933 l 0.175183,-0.153479 v -0.06718 h 0.077 l 0.143661,-0.125574 V 69.555958 H 81.0581 V 69.3353 Z m -3.053044,0.220658 h 0.4408 v 0.220659 h -0.220142 v 0.220141 h -0.220658 z m 3.273702,0 h 0.4408 v 0.220659 h -0.220142 v 0.220141 H 80.39664 Z m 1.195793,0.220659 v 0.4408 h 0.04651 l 0.01757,-0.0155 c 0.06403,-0.05607 0.104255,-0.134408 0.112655,-0.219108 l 0.02067,-0.206189 z m -4.248837,0.4408 h 0.220142 v 0.4408 h -0.4408 v -0.220142 h 0.220658 z m 3.273702,0 h 0.220142 v 0.4408 h -0.4408 v -0.220142 h 0.220658 z m -3.715018,0.920874 v 0.220658 h -0.173116 v 1.102258 h 0.173116 v 0.220659 h 0.882116 v -0.220659 h 0.220659 V 71.35895 h -0.220659 v -0.220658 z m 1.857767,0 v 0.220658 h -0.220658 v 0.220659 h -0.220658 v 0.440799 h 0.220658 V 71.79975 h 0.220658 v 0.606681 l 0.4408,-0.220658 v -1.047481 z m 1.415935,0 V 71.35895 H 79.95584 v 0.330729 l 0.630453,-0.551387 z m -3.053044,0.220658 h 0.4408 v 0.220659 h -0.220142 v 0.220141 h -0.220658 z m 0.220658,0.661458 h 0.220142 v 0.4408 h -0.4408 v -0.220141 h 0.220658 z m 0.975135,0.4408 v 0.165882 l 0.331762,-0.165882 z" />
        <path
   id="path11948-5-2-2"
   style="display:none;opacity:1;fill:#ff0000;fill-opacity:1;stroke:none;stroke-width:0.15;stroke-linecap:round;stroke-linejoin:round;stroke-dasharray:none;stroke-opacity:1"
   d="m 68.146225,65.844042 c 0.03048,1.68e-4 0.06133,0.0125 0.08527,0.04754 0.04903,0.196854 0.103647,0.34162 0.104386,0.563273 -0.0089,0.04458 -0.0506,0.123817 -0.09198,0.142627 -0.0605,0.0148 -0.11198,0.01327 -0.14366,-0.02739 -0.01544,-0.05353 -0.07168,-0.354738 -0.07235,-0.391708 -7e-4,-0.03921 -0.02126,-0.264248 0.0078,-0.289388 0.02207,-0.01912 0.06603,-0.0452 0.110588,-0.04496 z m -0.285254,0.160197 c 0.03048,1.68e-4 0.06133,0.0125 0.08527,0.04754 0.04903,0.196854 0.116566,0.37676 0.117305,0.598413 -0.0089,0.04458 -0.05629,0.09436 -0.09767,0.113172 -0.0605,0.0148 -0.08695,0.0105 -0.14056,0.0093 -0.01166,-0.02381 -0.0471,-0.203551 -0.0677,-0.325044 0.0085,0.133271 0.01064,0.264611 0.0078,0.334863 -0.0043,0.02159 -0.02173,0.03996 -0.04289,0.05529 0.04302,0.0017 0.08024,0.01167 0.09922,0.03669 v 5.17e-4 c 0.02135,0.02817 0.03744,0.09139 0.04961,0.169498 -0.0035,-0.06987 -0.0046,-0.153346 0.01344,-0.167431 0.03727,-0.02907 0.137301,-0.07531 0.19637,0.0026 0.04916,0.177735 0.116565,0.339891 0.117306,0.540018 -0.0089,0.04025 -0.05618,0.08534 -0.09767,0.10232 -0.06066,0.01336 -0.08732,0.0094 -0.141076,0.0083 -0.01169,-0.02151 -0.04705,-0.183826 -0.0677,-0.293522 0.0086,0.120328 0.01065,0.238878 0.0078,0.302307 -0.0089,0.04025 -0.07271,0.06777 -0.114205,0.08475 -0.0656,0.02685 -0.136311,0.03066 -0.178283,0.02687 -0.05222,-0.0047 -0.07844,-0.01074 -0.09199,-0.03566 -0.01694,-0.03117 -0.05153,-0.336107 -0.05219,-0.369486 -6.27e-4,-0.03117 -0.0384,-0.262871 5.17e-4,-0.340548 -0.04527,-0.0052 -0.06906,-0.01252 -0.08165,-0.03824 -0.0169,-0.03453 -0.05153,-0.372308 -0.05219,-0.409278 -7.1e-4,-0.03921 -0.04875,-0.365212 0.02119,-0.402042 0.0435,-0.02294 0.277504,-0.09505 0.336414,-0.0088 0.0213,0.0312 0.03748,0.101603 0.04961,0.188102 -0.0035,-0.07742 -0.0046,-0.169908 0.01344,-0.185519 0.02207,-0.01912 0.06603,-0.0452 0.110588,-0.04496 z m -0.706417,0.177767 c 0.04674,6.53e-4 0.08775,0.01169 0.108004,0.04134 0.06638,0.09726 0.08256,0.554627 0.07596,0.715202 -0.004,0.02024 -0.01128,0.04129 -0.02119,0.06046 0.034,0.0039 0.06219,0.01425 0.07803,0.03514 v 5.17e-4 c 0.06656,0.08781 0.08258,0.500458 0.07596,0.645439 -0.0089,0.04025 -0.03153,0.0838 -0.07028,0.10542 -0.104977,0.05858 -0.156981,0.0379 -0.198955,0.03411 -0.05222,-0.0047 -0.09911,-0.02004 -0.112654,-0.04496 -0.0049,-0.0089 -0.0105,-0.04022 -0.01602,-0.08062 -6.79e-4,0.01431 -0.0015,0.02764 -0.0021,0.03927 -0.0089,0.04025 -0.03153,0.08432 -0.07028,0.105937 -0.104974,0.05858 -0.213859,0.07742 -0.33693,0.06821 -0.09635,-0.0072 -0.120788,-0.01857 -0.142627,-0.04909 -0.0055,-0.0077 -0.0096,-0.04058 -0.0124,-0.08475 -0.0017,0.01677 -0.0039,0.03434 -0.0067,0.05271 -0.0089,0.04025 -0.03154,0.0838 -0.07028,0.10542 -0.104973,0.05858 -0.246414,0.111012 -0.369486,0.101802 -0.09635,-0.0072 -0.280014,0.0076 -0.339514,-0.06098 -0.08654,-0.09986 -0.03974,-0.449795 -0.03462,-0.483174 0.0055,-0.03581 0.06905,-0.131053 0.232544,-0.173633 0.02286,-0.006 0.05869,-0.01336 0.100252,-0.02015 -0.02758,9.11e-4 -0.0548,1.64e-4 -0.08165,-0.0021 -0.09609,-0.008 -0.180439,0.0088 -0.239779,-0.06718 -0.0256,-0.257233 -0.121911,-0.663887 0.0155,-0.947746 0.07934,-0.06795 0.313995,-0.06373 0.411345,-0.02584 0.07232,0.02815 0.114607,0.110284 0.145727,0.181384 0.04691,0.10727 0.08322,0.212096 0.10232,0.318843 0.0012,-0.05648 0.0033,-0.09941 0.0067,-0.109554 0.0117,-0.03508 -0.04669,-0.320771 0.02325,-0.357601 0.0435,-0.02291 0.297197,-0.1089 0.374137,-0.03824 0.06509,0.05977 0.105198,0.145332 0.129708,0.238745 -0.01316,-0.107084 -0.02349,-0.232625 0.01757,-0.254248 0.02855,-0.01505 0.139174,-0.05137 0.22841,-0.05013 z m 1.134298,0.510046 c 0.0282,0.0018 0.05588,0.01368 0.07803,0.04289 h 5.17e-4 c 0.04917,0.177735 0.103645,0.308367 0.104386,0.508496 -0.0089,0.04025 -0.05049,0.111691 -0.09198,0.128674 -0.06067,0.01336 -0.112411,0.01191 -0.144177,-0.02481 -0.01548,-0.04833 -0.0722,-0.320087 -0.07286,-0.353466 -7.02e-4,-0.0354 -0.02134,-0.238785 0.0078,-0.261483 0.02329,-0.01817 0.07133,-0.04323 0.118339,-0.04031 z m -1.347722,0.262 c -6.77e-4,0.01585 -0.0015,0.03104 -0.0021,0.04393 -0.0043,0.02145 -0.01184,0.04349 -0.02274,0.06356 0.06229,0.05412 0.101283,0.129869 0.125057,0.21239 -0.009,-0.06589 -0.01706,-0.139551 -0.0083,-0.186552 -0.03613,-0.0083 -0.06574,-0.02303 -0.07596,-0.04393 -0.0048,-0.0099 -0.01051,-0.04464 -0.01602,-0.0894 z m -0.561723,0.104903 c -0.0021,0.0137 -0.0045,0.02747 -0.0072,0.04134 -0.0089,0.04458 -0.03164,0.09337 -0.07028,0.117306 -0.04774,0.02958 -0.101813,0.04992 -0.15813,0.06253 0.03396,-0.0031 0.06703,-0.0046 0.09612,-0.0041 0.03945,6.14e-4 0.114286,0.0059 0.177767,0.04961 0.03602,0.100259 0.07081,0.175219 0.08682,0.265617 -3.1e-5,-0.08677 0.0028,-0.164262 0.0078,-0.177767 0.0077,-0.02067 -0.01489,-0.137765 -0.01189,-0.225826 -0.06929,-0.0083 -0.0905,-0.0221 -0.109554,-0.05168 -0.0048,-0.0075 -0.0086,-0.03675 -0.01137,-0.077 z"
   transform="translate(11.1125,2.116667)" />
      </g>
      
    </g>
  </g>
  
  
  
  
  
</svg>
